<svg width="540" height="356" viewBox="0 0 540 356" fill="none" xmlns="http://www.w3.org/2000/svg">
<path d="M111.465 154.554C84.1271 154.679 61.875 155.079 61.875 155.079C61.875 155.079 88.3251 120.31 111.366 133.192C134.407 146.074 160.875 154.627 160.875 154.627C160.875 154.627 138.803 154.429 111.465 154.554Z" fill="#F2F2F2"/>
<path d="M417.375 165.204C420.482 165.204 423 162.686 423 159.579C423 156.473 420.482 153.954 417.375 153.954C414.268 153.954 411.75 156.473 411.75 159.579C411.75 162.686 414.268 165.204 417.375 165.204Z" fill="#FF6584"/>
<path d="M375.738 248.808L418.474 199.734L419.793 200.883L377.057 249.957L375.738 248.808Z" fill="#3F3D56"/>
<path d="M419.625 209.079C424.596 209.079 428.625 205.05 428.625 200.079C428.625 195.109 424.596 191.079 419.625 191.079C414.654 191.079 410.625 195.109 410.625 200.079C410.625 205.05 414.654 209.079 419.625 209.079Z" fill="#3F3D56"/>
<path d="M392.947 230.454C392.947 230.454 410.226 208.435 388.125 193.329Z" fill="#3F3D56"/>
<path d="M106.4 269.16C138.067 327.874 205.275 353.079 205.275 353.079C205.275 353.079 221.141 283.089 189.475 224.374C157.808 165.659 90.5998 140.454 90.5998 140.454C90.5998 140.454 74.7335 210.445 106.4 269.16Z" fill="#3F3D56"/>
<path d="M127.824 250.097C184.985 284.585 207 353.089 207 353.089C207 353.089 136.338 365.675 79.1762 331.187C22.0147 296.699 0 228.195 0 228.195C0 228.195 70.6624 215.609 127.824 250.097Z" fill="#111B47"/>
<path d="M354.594 250.401C297.121 284.418 274.5 352.798 274.5 352.798C274.5 352.798 345.059 366.025 402.531 332.008C460.004 297.991 482.625 229.611 482.625 229.611C482.625 229.611 412.066 216.384 354.594 250.401Z" fill="#3F3D56"/>
<path d="M375.456 271.203C343.276 329.607 275.858 354.204 275.858 354.204C275.858 354.204 260.614 284.11 292.794 225.706C324.974 167.302 392.392 142.704 392.392 142.704C392.392 142.704 407.636 212.799 375.456 271.203Z" fill="#111B47"/>
<path d="M258.617 111.25C251.849 105.126 250.902 94.8366 256.437 87.5795C256.083 87.9109 255.738 88.2551 255.407 88.6209C248.907 95.8137 249.465 106.917 256.655 113.42C263.844 119.924 274.942 119.365 281.443 112.172C281.773 111.806 282.081 111.428 282.375 111.043C275.714 117.281 265.385 117.371 258.617 111.25V111.25Z" fill="#2F2E41"/>
<path d="M242.438 123.579C262.63 123.579 279 107.21 279 87.017C279 66.8241 262.63 50.4545 242.438 50.4545C222.245 50.4545 205.875 66.8241 205.875 87.017C205.875 107.21 222.245 123.579 242.438 123.579Z" fill="#2F2E41"/>
<path d="M232.017 133.739L233.114 130.921L213.161 147.616L189.042 161.058C189.042 161.058 176.764 114.226 175.887 113.359C175.01 112.491 159.223 79.5354 152.207 95.1461C145.19 110.757 165.801 119.863 165.801 119.863C165.801 119.863 166.459 176.886 187.508 176.452C208.557 176.018 234.649 157.155 235.087 155.421C235.526 153.686 232.017 133.739 232.017 133.739Z" fill="#FFB8B8"/>
<path d="M237.938 124.704C250.053 124.704 259.875 114.883 259.875 102.767C259.875 90.6512 250.053 80.8295 237.938 80.8295C225.822 80.8295 216 90.6512 216 102.767C216 114.883 225.822 124.704 237.938 124.704Z" fill="#FFB8B8"/>
<path d="M241.739 118.798C241.739 118.798 247.436 126.187 245.683 127.057C243.93 127.926 233.851 128.361 227.716 135.75C221.581 143.139 235.166 161.829 235.166 161.829L286.875 127.491L265.841 120.537C265.841 120.537 251.38 112.713 251.818 104.454L241.739 118.798Z" fill="#FFB8B8"/>
<path d="M311.625 355.329H253.541C250.251 331.325 248.73 309.327 248.73 309.327C248.73 309.327 247.881 331.454 245.623 355.329H171C181.578 284.634 231.725 207.972 231.725 207.972C231.725 207.972 232.162 197.529 233.471 195.787C234.779 194.052 226.059 193.616 222.132 180.567C219.738 172.601 221.89 167.388 223.936 164.54C224.639 163.514 225.503 162.608 226.495 161.857C226.495 161.857 227.368 152.726 226.495 151.42C226.383 151.249 227.244 150.649 228.836 149.737C230.163 148.973 231.996 147.99 234.19 146.86C246.755 140.359 271.077 128.857 279.408 124.939C281.236 124.074 282.297 123.579 282.297 123.579L297.12 128.798C308.889 132.711 308.889 157.509 308.889 157.509L308.223 158.521L290.434 185.409L280.116 201.012C282.733 202.747 277.504 213.626 277.504 213.626C277.504 213.626 284.956 224.31 291.018 240.619C294.445 249.696 296.783 259.146 297.981 268.772C298.745 275.01 298.895 281.308 298.429 287.575C296.814 308.532 303.995 334.002 311.625 355.329Z" fill="#2F2E41"/>
<path d="M296.945 130.818C295.978 130.268 294.821 130.178 293.782 130.571C292.743 130.964 291.929 131.8 291.556 132.857C290.258 136.466 288.943 143.99 289.412 159.633C290.274 188.403 290.704 208.018 290.704 208.018V251.608C290.704 251.608 271.745 293.454 282.087 293.454C292.428 293.454 299.753 260.326 299.753 260.326C299.753 260.326 309.233 210.198 306.217 201.48C306.216 201.48 314.721 141.253 296.945 130.818Z" fill="#FFB8B8"/>
<path d="M235.688 96.5795C245.939 96.5795 254.25 90.7872 254.25 83.642C254.25 76.4968 245.939 70.7045 235.688 70.7045C225.436 70.7045 217.125 76.4968 217.125 83.642C217.125 90.7872 225.436 96.5795 235.688 96.5795Z" fill="#2F2E41"/>
<path d="M265.5 72.9545C275.441 72.9545 283.5 64.8956 283.5 54.9545C283.5 45.0133 275.441 36.9545 265.5 36.9545C255.559 36.9545 247.5 45.0133 247.5 54.9545C247.5 64.8956 255.559 72.9545 265.5 72.9545Z" fill="#2F2E41"/>
<path d="M277.875 67.7622C268.517 67.7609 260.721 60.7259 259.942 51.5795C259.901 52.065 259.875 52.5547 259.875 53.0506C259.875 62.8006 267.934 70.7045 277.875 70.7045C287.816 70.7045 295.875 62.8006 295.875 53.0506C295.875 52.5547 295.849 52.065 295.808 51.5795C295.029 60.726 287.233 67.7609 277.875 67.7622V67.7622Z" fill="#2F2E41"/>
<path d="M259.188 98.8502C260.008 98.6544 260.309 96.9771 259.862 95.1037C259.414 93.2304 258.387 91.8704 257.568 92.0662C256.748 92.2619 256.446 93.9393 256.894 95.8126C257.341 97.686 258.368 99.0459 259.188 98.8502Z" fill="#FFB8B8"/>
<path d="M258.75 98.8295C259.371 98.8295 259.875 98.3258 259.875 97.7045C259.875 97.0831 259.371 96.5795 258.75 96.5795C258.129 96.5795 257.625 97.0831 257.625 97.7045C257.625 98.3258 258.129 98.8295 258.75 98.8295Z" fill="#F2F2F2"/>
<path fill-rule="evenodd" clip-rule="evenodd" d="M45 165.767C45 169.806 48.2739 173.079 52.3125 173.079C56.3492 173.075 59.6205 169.804 59.625 165.767C59.625 161.728 56.3511 158.454 52.3125 158.454C48.2739 158.454 45 161.728 45 165.767ZM46.2188 165.767C46.2188 162.401 48.9471 159.673 52.3125 159.673C55.6764 159.677 58.4024 162.403 58.4063 165.767C58.4063 169.132 55.678 171.861 52.3125 171.861C48.9471 171.861 46.2188 169.132 46.2188 165.767Z" fill="#3F3D56"/>
<path fill-rule="evenodd" clip-rule="evenodd" d="M342 121.329H357.75V105.579H342V121.329ZM356.538 120.118H343.212V106.791H356.538V120.118Z" fill="#3F3D56"/>
<path d="M490.59 202.929C463.252 203.054 441 203.454 441 203.454C441 203.454 467.45 168.685 490.491 181.567C513.532 194.449 540 203.002 540 203.002C540 203.002 517.928 202.804 490.59 202.929Z" fill="#F2F2F2"/>
<path d="M406.215 84.8036C378.877 84.9286 356.625 85.3295 356.625 85.3295C356.625 85.3295 383.075 50.5604 406.116 63.4421C429.157 76.3238 455.625 84.8767 455.625 84.8767C455.625 84.8767 433.553 84.6786 406.215 84.8036Z" fill="#F2F2F2"/>
<path d="M147.777 100.104L84.6408 67.5107C80.3294 65.2849 78.6315 59.9718 80.8485 55.6434L95.7226 26.6035C96.1591 25.7512 96.9254 25.1166 97.8418 24.8483L147.606 10.2812C151.737 9.07176 156.089 11.3184 157.513 15.3957L173.863 62.2191C174.689 64.583 174.51 67.1837 173.369 69.4114L159.598 96.2967C158.534 98.3753 156.69 99.9442 154.473 100.658C152.256 101.372 149.848 101.173 147.777 100.104V100.104Z" fill="#F2F2F2"/>
<path opacity="0.1" d="M150.015 89.3525L86.4061 62.0813C84.3566 61.0229 86.2784 62.6497 87.3323 60.5915L95.3284 27.9545L173.25 68.1928L153.551 92.6541C152.497 94.7124 152.065 90.4108 150.015 89.3525Z" fill="black"/>
<path d="M96.0162 69.8322C91.9956 67.7648 90.4123 62.8295 92.4797 58.8089L114.835 15.3337C116.903 11.3132 121.838 9.72983 125.859 11.7973L169.334 34.1528C173.354 36.2202 174.938 41.1555 172.87 45.1761L150.515 88.6513C148.447 92.6718 143.512 94.2552 139.491 92.1877L96.0162 69.8322Z" fill="#111B47"/>
<path opacity="0.1" d="M163.125 63.4882L146.765 95.4545L88.875 65.5451L105.235 33.5795L126.986 62.5906L163.125 63.4882V63.4882Z" fill="black"/>
<path d="M126.283 64.6933L98.1987 27.5069C97.8456 27.0393 97.2762 26.7858 96.6915 26.8357C96.1067 26.8856 95.5888 27.2319 95.3205 27.7525L79.3393 58.7525C78.6936 60.005 78.5732 61.4621 79.0045 62.8032C79.4359 64.1443 80.3836 65.2596 81.6394 65.9037L151.268 101.617C152.524 102.261 153.984 102.381 155.329 101.951C156.673 101.52 157.792 100.575 158.437 99.3224L174.145 68.8535C174.472 68.2182 174.449 67.4596 174.084 66.8453C173.718 66.231 173.062 65.8473 172.346 65.8297L126.283 64.6933Z" fill="#F2F2F2"/>
<path d="M120.839 15.9531L137.069 24.2988L135.889 26.594L119.659 18.2482L120.839 15.9531Z" fill="#F2F2F2"/>
<path d="M115.228 23.6396L163.427 48.4239L162.752 49.7355L114.554 24.9512L115.228 23.6396Z" fill="#F2F2F2"/>
<path d="M112.952 28.066L161.151 52.8503L160.476 54.1619L112.278 29.3776L112.952 28.066Z" fill="#F2F2F2"/>
<path d="M110.676 32.4924L158.874 57.2767L158.2 58.5883L110.002 33.804L110.676 32.4924Z" fill="#F2F2F2"/>
<path d="M127.207 13.6464C129.12 9.92745 127.661 5.36518 123.948 3.45632C120.236 1.54745 115.677 3.01482 113.764 6.7338C111.852 10.4528 113.311 15.015 117.023 16.9239C120.735 18.8328 125.295 17.3654 127.207 13.6464Z" fill="white"/>
<path fill-rule="evenodd" clip-rule="evenodd" d="M112.373 5.83967C114.647 1.4202 120.075 -0.320222 124.496 1.95232C128.906 4.23502 130.644 9.64853 128.386 14.0693C126.112 18.4887 120.684 20.2292 116.263 17.9566C111.841 15.6841 110.1 10.2591 112.373 5.83967ZM114.548 7.16633L116.541 13.3763L127.733 9.79378L127.174 8.05196L117.726 11.0815L116.29 6.60752L114.548 7.16633Z" fill="#57B894"/>
</svg>
