<svg width="540" height="379" viewBox="0 0 540 379" fill="none" xmlns="http://www.w3.org/2000/svg">
<path d="M202.652 368.899C299.159 368.899 377.393 290.664 377.393 194.157C377.393 97.6502 299.159 19.4157 202.652 19.4157C106.145 19.4157 27.9102 97.6502 27.9102 194.157C27.9102 290.664 106.145 368.899 202.652 368.899Z" fill="#F2F2F2"/>
<path d="M230.693 220.802C192.217 280.114 202.759 355.551 202.759 355.551C202.759 355.551 275.684 334.824 314.161 275.512C352.637 216.201 342.095 140.764 342.095 140.764C342.095 140.764 269.17 161.49 230.693 220.802Z" fill="#3F3D56"/>
<path d="M202.641 354.337C202.641 354.337 201.699 354.187 199.965 353.838C198.581 353.559 196.677 353.16 194.352 352.611C173.564 347.733 118.296 331.243 82.1629 287.888C36.9386 233.599 38.8429 157.753 38.8429 157.753C38.8429 157.753 107.992 168.936 153.558 217.688C155.532 219.783 157.453 221.954 159.321 224.202C198.672 271.438 202.34 334.994 202.631 350.706C202.671 353.06 202.641 354.337 202.641 354.337Z" fill="#222F65"/>
<path fill-rule="evenodd" clip-rule="evenodd" d="M174.61 220.802C213.087 280.114 202.544 355.551 202.544 355.551C202.544 355.551 129.619 334.824 91.1427 275.512C52.6663 216.201 63.2089 140.764 63.2089 140.764C63.2089 140.764 136.134 161.49 174.61 220.802Z" stroke="#3F3D56" stroke-width="2"/>
<path opacity="0.1" d="M202.652 351.978C201.633 353.21 200.733 354.262 199.994 355.123C198.355 356.996 197.426 357.978 197.426 357.978C197.426 357.978 196.297 356.555 194.398 353.891C183.976 339.328 150.453 287.546 153.041 227.732C153.181 224.597 153.411 221.495 153.73 218.427C155.699 220.53 157.614 222.71 159.476 224.967C198.705 272.392 202.362 336.203 202.652 351.978Z" fill="black"/>
<path d="M260.757 232.116C257.689 302.821 204.984 357.978 204.984 357.978C204.984 357.978 157.253 298.499 160.322 227.794C163.39 157.089 216.095 101.933 216.095 101.933C216.095 101.933 263.825 161.411 260.757 232.116Z" fill="#222F65"/>
<path d="M205.079 355.551L216 104.36" stroke="#3F3D56" stroke-width="2"/>
<path d="M270 378.607C419.117 378.607 540 371.001 540 361.618C540 352.235 419.117 344.629 270 344.629C120.883 344.629 0 352.235 0 361.618C0 371.001 120.883 378.607 270 378.607Z" fill="#3F3D56"/>
<path d="M44.8988 355.551V287.595Z" fill="#3F3D56"/>
<path d="M44.8988 355.551V287.595" stroke="#3F3D56" stroke-width="2"/>
<path d="M44.8989 297.303C50.2604 297.303 54.6068 292.957 54.6068 287.596C54.6068 282.234 50.2604 277.888 44.8989 277.888C39.5374 277.888 35.191 282.234 35.191 287.596C35.191 292.957 39.5374 297.303 44.8989 297.303Z" fill="#3F3D56"/>
<path d="M44.8989 330.067C44.8989 330.067 43.5443 300.178 15.7753 303.652Z" fill="#3F3D56"/>
<path d="M276.674 245.124V55.8203Z" fill="#3F3D56"/>
<path d="M276.674 245.124V55.8203" stroke="#3F3D56" stroke-width="2"/>
<path d="M276.674 70.3821C284.046 70.3821 290.022 64.4058 290.022 57.0337C290.022 49.6617 284.046 43.6854 276.674 43.6854C269.302 43.6854 263.326 49.6617 263.326 57.0337C263.326 64.4058 269.302 70.3821 276.674 70.3821Z" fill="#3F3D56"/>
<path d="M276.674 110.427C276.674 110.427 274.812 69.668 236.629 74.4056Z" fill="#3F3D56"/>
<path d="M434.774 140.764L423.395 162.164C423.395 162.164 341.12 177.886 351.623 202.342C362.126 226.799 373.942 262.61 380.069 261.737C386.196 260.864 419.894 241.648 421.207 235.97C422.52 230.293 391.01 203.653 391.01 203.653L443.089 193.608C443.089 193.608 450.528 228.546 440.901 252.566C431.273 276.586 425.583 341.658 432.148 342.531C438.712 343.405 455.342 348.645 462.782 343.841C470.222 339.037 473.723 233.787 473.723 233.787C473.723 233.787 489.478 164.784 479.85 156.923C470.222 149.062 434.774 140.764 434.774 140.764Z" fill="#2F2E41"/>
<path d="M452.559 332.806C452.559 332.806 442.392 327.438 440.251 331.733C440.251 331.733 441.857 344.617 435.435 346.227C429.014 347.838 426.338 359.112 435.435 360.185C444.532 361.259 450.418 358.038 453.629 358.038C456.84 358.038 453.629 346.764 453.629 346.764L452.559 332.806Z" fill="#2F2E41"/>
<path d="M404.047 244.924C404.047 244.924 392.969 241.816 391.779 246.483C391.779 246.483 396.06 258.78 390.116 261.723C384.172 264.666 383.926 276.292 393.053 275.413C402.18 274.535 407.262 270.126 410.403 269.445C413.545 268.763 408.031 258.387 408.031 258.387L404.047 244.924Z" fill="#2F2E41"/>
<path d="M459.177 65.3566C459.177 65.3566 459.609 81.6536 456.583 82.975C453.557 84.2964 473.441 92.2247 473.441 92.2247L476.899 86.0583C476.899 86.0583 473.009 64.0352 473.873 62.2734C474.738 60.5115 459.177 65.3566 459.177 65.3566Z" fill="#9F616A"/>
<path d="M465.978 69.1685C480.722 69.1685 492.674 57.216 492.674 42.4719C492.674 27.7278 480.722 15.7753 465.978 15.7753C451.233 15.7753 439.281 27.7278 439.281 42.4719C439.281 57.216 451.233 69.1685 465.978 69.1685Z" fill="#2F2E41"/>
<path d="M468.405 27.9101C474.436 27.9101 479.326 23.0205 479.326 16.9888C479.326 10.9571 474.436 6.06744 468.405 6.06744C462.373 6.06744 457.483 10.9571 457.483 16.9888C457.483 23.0205 462.373 27.9101 468.405 27.9101Z" fill="#2F2E41"/>
<path d="M453.705 10.9213C453.706 5.33014 457.955 0.641986 463.551 0.0590517C463.17 0.0198077 462.788 9.75716e-05 462.406 0C456.336 0 451.416 4.88965 451.416 10.9213C451.416 16.953 456.336 21.8427 462.406 21.8427C462.788 21.8426 463.17 21.8229 463.551 21.7837C457.955 21.2007 453.706 16.5126 453.705 10.9213V10.9213Z" fill="#2F2E41"/>
<path d="M464.764 74.0225C474.817 74.0225 482.966 65.8731 482.966 55.8202C482.966 45.7674 474.817 37.618 464.764 37.618C454.711 37.618 446.562 45.7674 446.562 55.8202C446.562 65.8731 454.711 74.0225 464.764 74.0225Z" fill="#9F616A"/>
<path d="M478.417 79.8586C478.417 79.8586 462.697 84.6401 454.837 79.8586C446.977 75.077 428.201 88.987 425.145 95.0725C422.088 101.158 436.498 107.244 436.498 107.244C436.498 107.244 432.383 118.996 433.223 124.848C434.096 130.934 432.568 143.323 432.568 143.323C432.568 143.323 471.145 168.624 479.727 157.232C481.037 155.494 491.953 114.633 491.953 114.633L507.236 99.4194C507.236 99.4194 497.63 85.5095 491.953 84.2054C486.277 82.9014 478.417 79.8586 478.417 79.8586Z" fill="#D0CDE1"/>
<path d="M372.463 168.674C372.463 168.674 343.032 184.253 349.092 188.704C355.151 193.155 379.82 171.345 379.82 171.345L372.463 168.674Z" fill="#9F616A"/>
<path d="M488.939 157.678C488.939 157.678 475.596 148.314 473.448 152.996C471.299 157.678 488.057 168.221 491.585 164.096C495.113 159.97 488.939 157.678 488.939 157.678Z" fill="#9F616A"/>
<path d="M499.674 93.4382L507.456 98.278C507.456 98.278 533.829 135.236 524.75 143.596C515.671 151.955 492.324 168.674 492.324 168.674C492.324 168.674 484.542 157.235 487.136 156.795C489.73 156.355 510.482 138.756 510.482 138.756L492.324 104.438L499.674 93.4382Z" fill="#D0CDE1"/>
<path d="M429.791 92.2247L424.128 94.4218L409.317 121.226L370.112 169.121C370.112 169.121 375.34 177.47 379.696 175.712C384.052 173.954 416.723 137.044 416.723 137.044L438.067 103.649L429.791 92.2247Z" fill="#D0CDE1"/>
<path d="M466.584 44.8989C476.972 44.8989 485.393 40.0092 485.393 33.9775C485.393 27.9458 476.972 23.0562 466.584 23.0562C456.196 23.0562 447.775 27.9458 447.775 33.9775C447.775 40.0092 456.196 44.8989 466.584 44.8989Z" fill="#2F2E41"/>
<rect x="342.202" y="270.607" width="86.1573" height="86.1573" fill="#222F65"/>
<path fill-rule="evenodd" clip-rule="evenodd" d="M401.501 330.564C410.523 330.564 416.225 322.892 416.225 310.718C416.225 294.159 403.539 282.742 385.233 282.742C366.188 282.742 353.124 295.588 353.124 314.3C353.124 333.471 365.925 345.825 385.923 345.842C389.389 345.859 392.845 345.484 396.226 344.724C397.598 344.393 398.455 343.028 398.156 341.649C397.856 340.27 396.511 339.382 395.125 339.648C392.174 340.168 389.182 340.421 386.186 340.404C369.737 340.404 359.171 330.317 359.171 314.513C359.171 299.055 369.852 288.13 384.838 288.13C399.989 288.13 410.243 297.28 410.243 310.965C410.243 319.54 407.351 325.06 402.799 325.06C400.17 325.06 398.708 323.467 398.708 320.822V299.58H392.151V304.147H391.494C389.982 300.812 386.547 298.775 382.505 298.775C374.634 298.775 369.244 305.166 369.244 314.349C369.244 323.91 374.601 330.334 382.62 330.334C387.123 330.334 390.475 328.247 392.102 324.436H392.759C393.367 328.099 396.884 330.564 401.501 330.564ZM383.836 324.255C379.186 324.255 376.326 320.575 376.326 314.497C376.326 308.402 379.136 304.821 383.918 304.821C388.733 304.821 391.822 308.517 391.822 314.497C391.822 320.477 388.733 324.255 383.836 324.255Z" fill="white"/>
</svg>
